<?xml version="1.0" encoding="UTF-8" standalone="no"?>
<!-- Created with Inkscape (http://www.inkscape.org/) -->

<svg
   xmlns:dc="http://purl.org/dc/elements/1.1/"
   xmlns:cc="http://creativecommons.org/ns#"
   xmlns:rdf="http://www.w3.org/1999/02/22-rdf-syntax-ns#"
   xmlns:svg="http://www.w3.org/2000/svg"
   xmlns="http://www.w3.org/2000/svg"
   xmlns:sodipodi="http://sodipodi.sourceforge.net/DTD/sodipodi-0.dtd"
   xmlns:inkscape="http://www.inkscape.org/namespaces/inkscape"
   width="300"
   height="100"
   viewBox="0 0 79.374999 26.458333"
   version="1.1"
   id="svg1593"
   inkscape:version="0.92.4 (5da689c313, 2019-01-14)"
   sodipodi:docname="logo_full.svg">
  <defs
     id="defs1587" />
  <sodipodi:namedview
     id="base"
     pagecolor="#ffffff"
     bordercolor="#666666"
     borderopacity="1.0"
     inkscape:pageopacity="0.0"
     inkscape:pageshadow="2"
     inkscape:zoom="1.4142136"
     inkscape:cx="58.468408"
     inkscape:cy="-32.996914"
     inkscape:document-units="mm"
     inkscape:current-layer="layer4"
     showgrid="false"
     inkscape:pagecheckerboard="true"
     units="px"
     inkscape:window-width="1920"
     inkscape:window-height="1057"
     inkscape:window-x="-8"
     inkscape:window-y="-8"
     inkscape:window-maximized="1" />
  <metadata
     id="metadata1590">
    <rdf:RDF>
      <cc:Work
         rdf:about="">
        <dc:format>image/svg+xml</dc:format>
        <dc:type
           rdf:resource="http://purl.org/dc/dcmitype/StillImage" />
        <dc:title></dc:title>
      </cc:Work>
    </rdf:RDF>
  </metadata>
  <g
     inkscape:label="Layer 1"
     inkscape:groupmode="layer"
     id="layer1"
     transform="translate(0,-270.54167)" />
  <g
     inkscape:groupmode="layer"
     id="layer2"
     inkscape:label="cross"
     style="opacity:1"
     transform="translate(0,-270.54167)" />
  <g
     inkscape:groupmode="layer"
     id="layer4"
     inkscape:label="cross 1">
    <path
       style="opacity:1;fill:#e7475e;fill-opacity:1;fill-rule:evenodd;stroke:none;stroke-width:0.06391945;stroke-linecap:round;stroke-linejoin:bevel;stroke-miterlimit:4;stroke-dasharray:none;stroke-dashoffset:0.92550004;stroke-opacity:1;paint-order:fill markers stroke"
       d="m 37.819024,25.832935 c -3.897827,-0.58624 -7.320247,-2.95984 -9.254532,-6.418401 -1.723181,-3.08112 -2.068306,-6.85122 -0.936813,-10.2336487 1.839957,-5.50026 7.310406,-9.11655002 13.048627,-8.62589002 1.699157,0.14528 2.964401,0.48472002 4.461433,1.19691002 3.679539,1.75048 6.263779,5.06653 7.046616,9.0420797 0.211956,1.076389 0.28197,2.811889 0.156832,3.887499 -0.677412,5.822571 -5.297834,10.487261 -11.085702,11.191891 -0.933496,0.11359 -2.537438,0.0948 -3.436461,-0.0404 z m 4.581428,-2.68681 c 0.07758,-0.0363 0.171936,-0.147261 0.209675,-0.24653 0.03774,-0.0992 0.09271,-1.62059 0.122165,-3.38071 l 0.05355,-3.20025 0.788166,-0.0537 c 0.433491,-0.0295 2.035202,-0.0412 3.559357,-0.0259 l 2.771191,0.0278 v -2.8959 -2.895899 l -3.571602,-0.0201 -3.571602,-0.0201 -0.0025,-0.8679897 c -0.0067,-2.31319 -0.145394,-5.86383 -0.23322,-5.96966 -0.13557,-0.16335 -5.568992,-0.16563 -5.704467,-0.002 -0.0625,0.0753 -0.115662,1.1219 -0.173581,3.41715 -0.04592,1.81973 -0.09194,3.3185097 -0.102258,3.3306097 -0.01027,0.0122 -1.630569,0.0468 -3.600538,0.0772 l -3.581759,0.0552 v 2.895889 2.8959 l 3.597689,0.0201 3.597688,0.0201 0.07045,3.37778 c 0.03875,1.85779 0.100017,3.4236 0.136163,3.47957 0.05289,0.0819 0.595821,0.0965 2.780058,0.0748 1.492886,-0.0148 2.777814,-0.0567 2.855396,-0.0931 z"
       id="path2482"
       inkscape:connector-curvature="0" />
  </g>
  <g
     inkscape:groupmode="layer"
     id="layer3"
     inkscape:label="m"
     transform="translate(0,-270.54167)">
    <flowRoot
       xml:space="preserve"
       id="flowRoot2527"
       style="font-style:normal;font-weight:normal;font-size:40px;line-height:1.25;font-family:sans-serif;letter-spacing:0px;word-spacing:0px;fill:#000000;fill-opacity:1;stroke:none"
       transform="matrix(0.26458333,0,0,0.26458333,0,270.54167)"><flowRegion
         id="flowRegion2529"><rect
           id="rect2531"
           width="194"
           height="77.5"
           x="97.5"
           y="11" /></flowRegion><flowPara
         id="flowPara2533">MedTelPlus</flowPara></flowRoot>    <text
       xml:space="preserve"
       style="font-style:normal;font-variant:normal;font-weight:normal;font-stretch:normal;font-size:14.04946518px;line-height:1.25;font-family:'Arial Rounded MT Bold';-inkscape-font-specification:'Arial Rounded MT Bold, Normal';font-variant-ligatures:normal;font-variant-caps:normal;font-variant-numeric:normal;font-feature-settings:normal;text-align:start;letter-spacing:0px;word-spacing:0px;writing-mode:lr-tb;text-anchor:start;fill:#000000;fill-opacity:1;stroke:none;stroke-width:0.35123259"
       x="0.39633006"
       y="288.79929"
       id="text2537"><tspan
         sodipodi:role="line"
         id="tspan2535"
         x="0.39633006"
         y="288.79929"
         style="font-style:normal;font-variant:normal;font-weight:normal;font-stretch:normal;font-size:14.04946518px;font-family:'Arial Rounded MT Bold';-inkscape-font-specification:'Arial Rounded MT Bold, Normal';font-variant-ligatures:normal;font-variant-caps:normal;font-variant-numeric:normal;font-feature-settings:normal;text-align:start;writing-mode:lr-tb;text-anchor:start;stroke-width:0.35123259">MedTelPlus</tspan></text>
  </g>
</svg>
