<svg xmlns="http://www.w3.org/2000/svg" width="254.71" height="49.062" viewBox="0 0 254.71 49.062">
  <g id="medtelplus_logo" transform="translate(-389.646 -292.024)">
    <g id="layer4" transform="translate(386.5 411.113)">
      <path id="path2482" d="M22.85-72.7A22.16,22.16,0,0,1,6.834-83.8a22.156,22.156,0,0,1-1.621-17.711,22.067,22.067,0,0,1,22.582-14.928,20.711,20.711,0,0,1,7.721,2.071,21.94,21.94,0,0,1,12.2,15.649,26.037,26.037,0,0,1,.271,6.728A22.14,22.14,0,0,1,28.8-72.625a27.423,27.423,0,0,1-5.947-.07Zm7.929-4.65a.87.87,0,0,0,.363-.427c.065-.172.16-2.8.211-5.851l.093-5.538,1.364-.093c.75-.051,3.522-.071,6.16-.045l4.8.048V-99.274l-6.181-.035L31.4-99.344l0-1.5c-.012-4-.252-10.148-.4-10.331-.235-.283-9.638-.287-9.872,0a44.079,44.079,0,0,0-.3,5.914c-.079,3.149-.159,5.743-.177,5.764s-2.822.081-6.231.134l-6.2.1V-89.25l6.226.035,6.226.035.122,5.846c.067,3.215.173,5.925.236,6.022.092.142,1.031.167,4.811.129,2.584-.026,4.807-.1,4.942-.161Z" transform="translate(0)" fill="#e7475e" stroke="rgba(251,249,249,0.52)" stroke-linecap="round" stroke-linejoin="bevel" stroke-dashoffset="0.925" stroke-width="1.669"/>
    </g>
    <g id="layer5" transform="translate(307.923 103.977)">
      <g id="text973" transform="translate(120.951 -576.629)">
        <path id="path1012" d="M9.235,803.048V783.232a8.351,8.351,0,0,1,2.235-6.021,7.666,7.666,0,0,1,5.8-2.336,7.157,7.157,0,0,1,6.5,3.887,8.974,8.974,0,0,1,2.98-2.98,7.83,7.83,0,0,1,3.927-.906,7.02,7.02,0,0,1,5.679,2.336q1.974,2.336,1.974,6.726v19.111H30.158V785.165a4.439,4.439,0,0,0-.222-1.752.831.831,0,0,0-.846-.443q-1.208,0-1.208,2.054v18.024H19.707V785.165a4.531,4.531,0,0,0-.222-1.752.874.874,0,0,0-.866-.443q-1.208,0-1.208,2.2v17.883Z" fill="rgba(251,249,249,0.52)" stroke="#e7475e" stroke-width="1.031"/>
        <path id="path1014" d="M61.381,790.2H49.963a5.276,5.276,0,0,1,.1-3.564H53.89a2.368,2.368,0,0,0-2.517-2.235,2.726,2.726,0,0,0-2.3,1.208,4.986,4.986,0,0,0-.886,3.061,5.4,5.4,0,0,0,.846,3.162,2.657,2.657,0,0,0,2.255,1.208,3,3,0,0,0,2.175-1.128l4.289,5.155a10.534,10.534,0,0,1-6.666,2.356,10.275,10.275,0,0,1-7.512-3,10.6,10.6,0,0,1,.02-14.882,10.339,10.339,0,0,1,7.552-3.041A10.178,10.178,0,0,1,61.462,788.79q0,.443-.081,1.41Z" fill="rgba(251,249,249,0.52)" stroke="#e7475e" stroke-width="1.031"/>
        <path id="path1016" d="M76.888,775.017h7.532v16.735A11.341,11.341,0,0,1,82,799.263a9.868,9.868,0,0,1-3.544,2.658A10.734,10.734,0,0,1,66.5,799.887a9.976,9.976,0,0,1-3.081-7.411,10.111,10.111,0,0,1,3.061-7.35,9.846,9.846,0,0,1,7.25-3.1q.665,0,2.014.121v8.3a3,3,0,0,0-1.853-.725,2.719,2.719,0,0,0-2.014.866,2.832,2.832,0,0,0-.826,2.054,2.719,2.719,0,0,0,.866,2.014,2.9,2.9,0,0,0,2.074.826q2.9,0,2.9-4.007Z" fill="rgba(251,249,249,0.52)" stroke="#e7475e" stroke-width="1.031"/>
        <path id="path1020" d="M100.934,783.113v19.594H92.758V783.113H86.5v-7.894h20.682v7.894Z" fill="rgba(251,249,249,0.52)" stroke="#e7475e" stroke-width="1.031"/>
        <path id="path1022" d="M129.409,790.2H117.991a5.275,5.275,0,0,1,.1-3.564h3.826A2.368,2.368,0,0,0,119.4,784.4a2.726,2.726,0,0,0-2.3,1.208,4.986,4.986,0,0,0-.886,3.061,5.4,5.4,0,0,0,.846,3.162,2.657,2.657,0,0,0,2.255,1.208,3,3,0,0,0,2.175-1.128l4.289,5.155a10.534,10.534,0,0,1-6.666,2.356,10.275,10.275,0,0,1-7.512-3,10.6,10.6,0,0,1,.02-14.882,10.339,10.339,0,0,1,7.552-3.041A10.178,10.178,0,0,1,129.49,788.79q0,.443-.081,1.41Z" fill="rgba(251,249,249,0.52)" stroke="#e7475e" stroke-width="1.031"/>
        <path id="path1024" d="M140.082,775.217v27.489h-7.532V775.217Z" fill="rgba(251,249,249,0.52)" stroke="#e7475e" stroke-width="1.031"/>
      </g>
      <text id="text973-6" transform="translate(262.402 226.078)" fill="rgba(0,0,0,0.5)" stroke="rgba(231,71,94,0.94)" stroke-width="1.031" font-size="41.24" font-family="Bauhaus93, 'Bauhaus 93'"><tspan x="0" y="0">Plus</tspan></text>
    </g>
  </g>
</svg>
